# xmcd
#
# Track frame offsets:
# 150
# 18713
# 30565
# 44695
# 62135
# 75745
# 92457
# 108297
# 120055
# 141570
# 156030
# 168827
# 183092
# 197335
# 211305
# 224510
#
# Disc length: 3192 seconds
#
#
# Revision: 2
# Processed by: cddbd v1.5.1PL0 Copyright (c) Steve Scherf et al.
# Submitted via: FreeRIP 2.93 
#
DISCID=d20c7610
DTITLE=Linda Feller - Linda Feller&Friends
DYEAR=1900
DGENRE=
TTITLE0=Swett Home Alabama
TTITLE1=Stand BY YOUR MAN
TTITLE2=SOME YOU WIN AND SOME YUO LOOSE
TTITLE3=SILVER AND GOLD
TTITLE4=HEAD OVER HELLS
TTITLE5=ISLANDS IN THESTREAM
TTITLE6=LIVING ALONE
TTITLE7=NEVER SAY FOREVER
TTITLE8=I CAN`T STOP LOVING YOU
TTITLE9=SHADOWS OF LOVE
TTITLE10=EARLY IN THE MORNING
TTITLE11=I WILL ALWAYS LOVE
TTITLE12=MEMORIES
TTITLE13=JOLENE
TTITLE14=SO I BETTER GO
TTITLE15=EVEN COWGIRLS GET THE BLUES
EXTD=Sweet Home Alabama
EXTT0=
EXTT1=
EXTT2=
EXTT3=
EXTT4=
EXTT5=
EXTT6=
EXTT7=
EXTT8=
EXTT9=
EXTT10=
EXTT11=
EXTT12=
EXTT13=
EXTT14=
EXTT15=
PLAYORDER=
